<svg width="50" height="50" viewBox="0 0 40 40" fill="none" xmlns="http://www.w3.org/2000/svg">
<path fill-rule="evenodd" clip-rule="evenodd" d="M19.1667 11.6667V5H20.8334V11.6667H19.1667Z" fill="#F4F4F9"/>
<path fill-rule="evenodd" clip-rule="evenodd" d="M23.3334 9.16667H16.6667V7.5H23.3334V9.16667Z" fill="#F4F4F9"/>
<path d="M5 23.75C5 22.9831 5.44918 22.3152 6.25 22.0833L12.5 20V35H5C5 35 5 24.5169 5 23.75Z" fill="#F4F4F9"/>
<path d="M35 23.75C35 22.9831 34.5508 22.3152 33.75 22.0833L27.5 20V35H35C35 35 35 24.5169 35 23.75Z" fill="#F4F4F9"/>
<path fill-rule="evenodd" clip-rule="evenodd" d="M14.1667 35V15.4167C14.1667 14.5834 14.8149 14.1667 14.8149 14.1667L20.0001 10.8334L25.1852 14.1667C25.1852 14.1667 25.8334 14.5834 25.8334 15.4167V35H22.5001V26.6667C22.5001 25.286 21.3808 24.1667 20.0001 24.1667C18.6193 24.1667 17.5001 25.286 17.5001 26.6667V35H14.1667Z" fill="#F4F4F9"/>
</svg>
