<svg width="96" height="15" viewBox="0 0 96 15" fill="none" xmlns="http://www.w3.org/2000/svg">
<g clip-path="url(#clip0_2456_3)">
<path fill-rule="evenodd" clip-rule="evenodd" d="M2.79621 0H93.3904C94.4156 0 95.2545 0.84375 95.2545 1.875V12.9375C95.2545 13.9688 94.4156 14.8125 93.3904 14.8125H2.79621C1.77096 14.8125 0.932129 13.9688 0.932129 12.9375V1.875C0.932129 0.84375 1.77096 0 2.79621 0Z" fill="url(#paint0_linear_2456_3)"/>
<path d="M4.9397 10.125V4.94995H6.4496L7.73581 6.9562L9.02203 4.94995H10.5692V10.125H8.89154V7.31245L7.69853 9.3562H7.34436L6.09543 7.31245V10.125H4.9397ZM14.8193 4.94995L16.236 10.125H14.2974L14.055 9.0187H12.7688L12.5451 10.125H11.2403L12.5451 4.94995H14.8193ZM13.5331 5.7562H13.4213L12.9366 8.17495H13.9618L13.5331 5.7562ZM18.6593 10.125H16.8884V4.94995H18.6779C19.1253 4.94995 19.523 4.99995 19.871 5.09995C20.2189 5.19995 20.5172 5.3562 20.7657 5.5687C21.0143 5.7812 21.2007 6.04995 21.3249 6.37495C21.4616 6.68745 21.53 7.0562 21.53 7.4812C21.53 7.8062 21.4927 8.09995 21.4181 8.36245C21.356 8.62495 21.2628 8.84995 21.1385 9.03745C21.0143 9.23745 20.8651 9.4062 20.6912 9.5437C20.5172 9.6812 20.3246 9.7937 20.1133 9.8812C19.902 9.9562 19.6721 10.0187 19.4236 10.0687C19.1875 10.1062 18.9327 10.125 18.6593 10.125ZM18.5288 6.0187V8.9437H18.622C18.8209 8.9437 18.9948 8.92495 19.144 8.88745C19.3055 8.86245 19.436 8.7937 19.5354 8.6812C19.6473 8.5812 19.7343 8.43745 19.7964 8.24995C19.8585 8.04995 19.8896 7.7937 19.8896 7.4812C19.8896 7.2062 19.8647 6.97495 19.815 6.78745C19.7529 6.58745 19.6721 6.4312 19.5727 6.3187C19.4733 6.2062 19.3428 6.12495 19.1813 6.07495C19.0321 6.03745 18.8581 6.0187 18.6593 6.0187H18.5288ZM22.4993 10.125V4.94995H26.1156V5.9062H24.1397V6.9937H25.8919V7.9312H24.1397V9.0562H26.1156V10.125H22.4993ZM33.7397 10.125L33.1432 7.1812L32.6213 10.125H30.4776L29.5455 4.94995H31.3723L31.8943 9.0937L32.528 4.94995H34.0752L34.709 9.0937L35.2496 4.94995H36.5358L35.7156 10.125H33.7397ZM37.4119 10.125V4.94995H39.0523V10.125H37.4119ZM42.4822 10.125H40.8605V6.1312H39.6861V4.94995H43.6752V6.1312H42.4822V10.125ZM44.3463 10.125V4.94995H45.968V6.9562H47.4966V4.94995H49.1183V10.125H47.4966V8.02495H45.968V10.125H44.3463Z" fill="#FFC757"/>
<path d="M55.8478 10.2563C55.5372 10.2563 55.2389 10.2063 54.9531 10.1063C54.6797 10.0063 54.4373 9.8438 54.2261 9.6188C54.0148 9.3938 53.8471 9.11255 53.7228 8.77505C53.5985 8.42505 53.5364 8.01255 53.5364 7.53755C53.5364 7.05005 53.5985 6.6313 53.7228 6.2813C53.8471 5.9313 54.0148 5.65005 54.2261 5.43755C54.4373 5.22505 54.6797 5.0688 54.9531 4.9688C55.2265 4.8688 55.5061 4.8188 55.7919 4.8188C55.9659 4.8188 56.1461 4.8438 56.3325 4.8938C56.5065 4.9313 56.6742 4.98755 56.8358 5.06255C56.9973 5.13755 57.1403 5.22505 57.2645 5.32505C57.3888 5.42505 57.4882 5.53755 57.5628 5.66255V2.7563H59.6319V10.125H57.5628V9.2813C57.4758 9.4313 57.3702 9.5688 57.2459 9.6938C57.1216 9.8188 56.9849 9.92505 56.8358 10.0125C56.6867 10.0876 56.5313 10.1501 56.3698 10.2C56.1958 10.2376 56.0218 10.2563 55.8478 10.2563ZM55.5869 7.5563C55.5869 7.8188 55.6179 8.03755 55.6801 8.21255C55.7298 8.38755 55.8043 8.5313 55.9038 8.6438C55.9907 8.7438 56.0964 8.8188 56.2206 8.8688C56.3449 8.9063 56.4692 8.92505 56.5935 8.92505C56.7177 8.92505 56.8358 8.9063 56.9476 8.8688C57.0719 8.8188 57.1775 8.7438 57.2645 8.6438C57.3515 8.5313 57.4261 8.38755 57.4882 8.21255C57.5379 8.02505 57.5628 7.80005 57.5628 7.53755C57.5628 7.28755 57.5379 7.07505 57.4882 6.90005C57.4261 6.71255 57.3515 6.5688 57.2645 6.4688C57.1775 6.3563 57.0719 6.27505 56.9476 6.22505C56.8358 6.18755 56.7177 6.1688 56.5935 6.1688C56.4692 6.1688 56.3449 6.18755 56.2206 6.22505C56.1088 6.27505 56.0032 6.3563 55.9038 6.4688C55.8043 6.5688 55.7298 6.71255 55.6801 6.90005C55.6179 7.07505 55.5869 7.2938 55.5869 7.5563ZM61.3469 12.1125C61.0983 12.1125 60.856 12.1063 60.6199 12.0938C60.3838 12.0813 60.1663 12.0375 59.9674 11.9625V10.5938C60.0544 10.6188 60.129 10.6438 60.1911 10.6688C60.2533 10.6813 60.3154 10.6938 60.3775 10.7063C60.4272 10.7188 60.4707 10.725 60.508 10.725C60.5577 10.7375 60.6074 10.7438 60.6572 10.7438C60.7938 10.7438 60.8995 10.7188 60.974 10.6688C61.061 10.6063 61.1232 10.5313 61.1605 10.4438C61.2102 10.3563 61.2412 10.2625 61.2537 10.1625C61.2661 10.05 61.2723 9.9313 61.2723 9.8063V4.95005H63.3228V9.9188C63.3228 10.3313 63.2731 10.6813 63.1737 10.9688C63.0618 11.2563 62.9189 11.4813 62.7449 11.6438C62.5585 11.8188 62.3473 11.9438 62.1111 12.0188C61.8626 12.0813 61.6078 12.1125 61.3469 12.1125ZM62.2603 3.8063C62.0739 3.8063 61.8999 3.78755 61.7383 3.75005C61.5768 3.71255 61.4401 3.66255 61.3282 3.60005C61.2164 3.52505 61.1232 3.4438 61.0486 3.3563C60.9865 3.2563 60.9554 3.15005 60.9554 3.03755C60.9554 2.91255 60.9865 2.80005 61.0486 2.70005C61.1107 2.60005 61.2039 2.5188 61.3282 2.4563C61.4401 2.3938 61.5768 2.3438 61.7383 2.3063C61.8999 2.2813 62.0739 2.2688 62.2603 2.2688C62.4467 2.2688 62.6144 2.2813 62.7636 2.3063C62.9251 2.3438 63.068 2.3938 63.1923 2.4563C63.3041 2.5188 63.3973 2.60005 63.4719 2.70005C63.534 2.80005 63.5651 2.91255 63.5651 3.03755C63.5651 3.15005 63.5278 3.2563 63.4533 3.3563C63.3911 3.4438 63.3041 3.52505 63.1923 3.60005C63.068 3.66255 62.9251 3.71255 62.7636 3.75005C62.602 3.78755 62.4342 3.8063 62.2603 3.8063ZM66.0443 10.2563C65.8455 10.2563 65.6529 10.2313 65.4665 10.1813C65.2801 10.1188 65.1185 10.0313 64.9818 9.9188C64.8327 9.7938 64.7146 9.6438 64.6276 9.4688C64.5531 9.2813 64.5158 9.0688 64.5158 8.8313C64.5158 8.5938 64.5531 8.38755 64.6276 8.21255C64.7022 8.03755 64.8016 7.88755 64.9259 7.76255C65.0626 7.63755 65.2117 7.53755 65.3733 7.46255C65.5473 7.37505 65.7337 7.3063 65.9325 7.2563C66.1313 7.2188 66.3302 7.18755 66.529 7.16255C66.7403 7.15005 66.9391 7.1438 67.1255 7.1438C67.2622 7.1438 67.3927 7.1438 67.517 7.1438C67.6412 7.1563 67.7593 7.1688 67.8711 7.1813C67.8587 6.9688 67.8152 6.80005 67.7406 6.67505C67.6785 6.53755 67.5915 6.4313 67.4797 6.3563C67.3554 6.2813 67.2187 6.22505 67.0696 6.18755C66.9205 6.16255 66.7589 6.15005 66.5849 6.15005C66.4358 6.15005 66.2805 6.1563 66.1189 6.1688C65.9449 6.1938 65.7834 6.2188 65.6342 6.2438C65.4727 6.2813 65.3236 6.3188 65.1869 6.3563C65.0502 6.3813 64.9259 6.41255 64.814 6.45005V5.10005C64.9756 5.06255 65.1434 5.0313 65.3173 5.0063C65.4913 4.9688 65.6777 4.93755 65.8766 4.91255C66.0754 4.88755 66.2742 4.8688 66.4731 4.8563C66.6719 4.8313 66.8707 4.8188 67.0696 4.8188C67.3181 4.8188 67.5542 4.83755 67.7779 4.87505C68.0265 4.90005 68.2564 4.95005 68.4676 5.02505C68.6789 5.08755 68.8715 5.1813 69.0455 5.3063C69.2319 5.4188 69.3872 5.56255 69.5115 5.73755C69.6358 5.91255 69.7352 6.1188 69.8098 6.3563C69.8843 6.5938 69.9216 6.8688 69.9216 7.1813V10.125H67.9643V9.26255C67.8898 9.42505 67.7841 9.5688 67.6474 9.6938C67.5107 9.8063 67.3554 9.9063 67.1814 9.9938C67.0074 10.0813 66.821 10.1501 66.6222 10.2C66.4358 10.2376 66.2432 10.2563 66.0443 10.2563ZM66.8645 9.1313C66.9515 9.1313 67.0509 9.11255 67.1628 9.07505C67.2746 9.01255 67.3865 8.9313 67.4983 8.8313C67.5977 8.7313 67.6847 8.6063 67.7593 8.4563C67.8339 8.2938 67.8711 8.1063 67.8711 7.8938H67.7034C67.5542 7.8938 67.3989 7.9063 67.2373 7.9313C67.0758 7.9688 66.9267 8.0188 66.79 8.0813C66.6657 8.1438 66.5601 8.2188 66.4731 8.3063C66.3861 8.4063 66.3426 8.5188 66.3426 8.6438C66.3426 8.7313 66.355 8.8063 66.3799 8.8688C66.4172 8.9313 66.4606 8.98755 66.5104 9.03755C66.5601 9.07505 66.616 9.10005 66.6781 9.11255C66.7403 9.12505 66.8024 9.1313 66.8645 9.1313ZM71.301 10.125V4.95005H73.3702C73.3453 5.06255 73.3205 5.2063 73.2956 5.3813C73.2832 5.5438 73.277 5.7188 73.277 5.9063C73.3888 5.7438 73.5255 5.5938 73.6871 5.4563C73.8486 5.3313 74.0288 5.2188 74.2276 5.1188C74.4265 5.0313 74.6315 4.9563 74.8428 4.8938C75.0665 4.8438 75.2902 4.8188 75.5139 4.8188C75.7624 4.8188 75.9985 4.8563 76.2222 4.9313C76.4459 5.0063 76.6447 5.12505 76.8187 5.28755C76.9803 5.45005 77.1107 5.66255 77.2102 5.92505C77.3096 6.18755 77.3593 6.5063 77.3593 6.8813V10.125H75.3088V7.1813C75.3088 6.9813 75.2839 6.81255 75.2342 6.67505C75.197 6.55005 75.141 6.45005 75.0665 6.37505C74.9919 6.30005 74.9049 6.2438 74.8055 6.2063C74.7061 6.1813 74.6005 6.1688 74.4886 6.1688C74.3519 6.1688 74.2214 6.18755 74.0972 6.22505C73.9729 6.27505 73.861 6.3313 73.7616 6.3938C73.6622 6.4688 73.5752 6.5563 73.5006 6.6563C73.4261 6.7563 73.3826 6.86255 73.3702 6.97505V10.125H71.301ZM82.3364 9.22505C82.1997 9.51255 81.9946 9.7313 81.7212 9.8813C81.4354 10.0438 81.1123 10.125 80.7519 10.125C80.3542 10.125 80.0125 10.05 79.7267 9.90005C79.4408 9.75005 79.1985 9.5563 78.9997 9.3188C78.8133 9.0813 78.6704 8.8063 78.5709 8.4938C78.4839 8.1938 78.4405 7.87505 78.4405 7.53755C78.4405 7.21255 78.4902 6.88755 78.5896 6.56255C78.6766 6.23755 78.8195 5.9438 79.0183 5.6813C79.2047 5.4313 79.4346 5.22505 79.708 5.06255C79.9939 4.90005 80.317 4.8188 80.6773 4.8188C80.9135 4.8188 81.1247 4.85005 81.3111 4.91255C81.4975 4.96255 81.6653 5.03755 81.8144 5.13755C81.9511 5.23755 82.0754 5.3563 82.1872 5.4938C82.2867 5.6313 82.3737 5.78755 82.4482 5.96255C82.4482 5.93755 82.4482 5.8813 82.4482 5.7938C82.4358 5.7063 82.4234 5.6063 82.4109 5.4938C82.3985 5.3938 82.3861 5.2938 82.3737 5.1938C82.3612 5.0938 82.3488 5.01255 82.3364 4.95005H84.4055V9.0188C84.4055 9.5938 84.3309 10.0938 84.1818 10.5188C84.0451 10.9438 83.8463 11.3 83.5853 11.5875C83.3119 11.8625 82.9888 12.075 82.616 12.225C82.2307 12.3625 81.7958 12.4313 81.3111 12.4313C81.1247 12.4313 80.9507 12.425 80.7892 12.4125C80.6401 12.4 80.4972 12.3876 80.3605 12.375C80.2238 12.35 80.0871 12.325 79.9504 12.3C79.8137 12.2625 79.6645 12.225 79.503 12.1875L79.6521 10.9875C79.7391 11.0125 79.8385 11.0375 79.9504 11.0625C80.0622 11.0876 80.1803 11.1063 80.3045 11.1188C80.4288 11.1313 80.5531 11.1438 80.6773 11.1563C80.8016 11.1688 80.9197 11.175 81.0315 11.175C81.3049 11.175 81.5286 11.125 81.7026 11.025C81.8641 10.9125 81.9946 10.7688 82.094 10.5938C82.1935 10.4188 82.2556 10.2125 82.2805 9.97505C82.3177 9.73755 82.3364 9.48755 82.3364 9.22505ZM80.3605 7.5563C80.3605 7.8188 80.3853 8.03755 80.435 8.21255C80.4972 8.38755 80.5717 8.5313 80.6587 8.6438C80.7581 8.7438 80.87 8.8188 80.9942 8.8688C81.1061 8.9063 81.2241 8.92505 81.3484 8.92505C81.4727 8.92505 81.597 8.9063 81.7212 8.8688C81.8331 8.8188 81.9387 8.7438 82.0381 8.6438C82.1251 8.5313 82.1935 8.38755 82.2432 8.21255C82.3053 8.02505 82.3364 7.80005 82.3364 7.53755C82.3364 7.28755 82.3053 7.07505 82.2432 6.90005C82.1935 6.71255 82.1251 6.5688 82.0381 6.4688C81.9387 6.3563 81.8331 6.27505 81.7212 6.22505C81.6094 6.18755 81.4913 6.1688 81.3671 6.1688C81.2428 6.1688 81.1185 6.18755 80.9942 6.22505C80.87 6.27505 80.7643 6.3563 80.6773 6.4688C80.5779 6.5688 80.4972 6.71255 80.435 6.90005C80.3853 7.07505 80.3605 7.2938 80.3605 7.5563ZM88.4878 10.2563C88.115 10.2563 87.7857 10.225 87.4999 10.1625C87.2016 10.0875 86.9469 9.98755 86.7356 9.86255C86.5119 9.73755 86.3193 9.5938 86.1577 9.4313C86.0086 9.2563 85.8843 9.0688 85.7849 8.8688C85.6979 8.6688 85.6296 8.4563 85.5799 8.2313C85.5426 8.0063 85.5239 7.77505 85.5239 7.53755C85.5239 7.31255 85.5426 7.0938 85.5799 6.8813C85.6296 6.6563 85.6979 6.4438 85.7849 6.2438C85.8843 6.0313 86.0086 5.8438 86.1577 5.6813C86.3193 5.5063 86.5057 5.3563 86.717 5.2313C86.9407 5.1063 87.2016 5.0063 87.4999 4.9313C87.7857 4.8563 88.115 4.8188 88.4878 4.8188C88.8731 4.8188 89.2086 4.8563 89.4944 4.9313C89.7927 5.0063 90.0474 5.1063 90.2587 5.2313C90.4824 5.3563 90.6688 5.5063 90.8179 5.6813C90.9795 5.8438 91.1038 6.0313 91.1907 6.2438C91.2902 6.4438 91.3585 6.6563 91.3958 6.8813C91.4455 7.0938 91.4704 7.31255 91.4704 7.53755C91.4704 7.77505 91.4455 8.0063 91.3958 8.2313C91.3585 8.4563 91.2902 8.6688 91.1907 8.8688C91.1038 9.0688 90.9795 9.2563 90.8179 9.4313C90.6688 9.5938 90.4824 9.73755 90.2587 9.86255C90.0474 9.98755 89.7927 10.0875 89.4944 10.1625C89.2086 10.225 88.8731 10.2563 88.4878 10.2563ZM87.5744 7.53755C87.5744 7.71255 87.5931 7.88755 87.6304 8.06255C87.6552 8.22505 87.7049 8.3688 87.7795 8.4938C87.854 8.6188 87.9473 8.72505 88.0591 8.81255C88.1834 8.88755 88.3263 8.92505 88.4878 8.92505C88.6618 8.92505 88.8047 8.88755 88.9166 8.81255C89.0408 8.72505 89.134 8.6188 89.1962 8.4938C89.2707 8.3688 89.3267 8.22505 89.3639 8.06255C89.3888 7.88755 89.4012 7.71255 89.4012 7.53755C89.4012 7.37505 89.3888 7.21255 89.3639 7.05005C89.3267 6.87505 89.2707 6.72505 89.1962 6.60005C89.134 6.47505 89.0408 6.3688 88.9166 6.2813C88.8047 6.2063 88.6618 6.1688 88.4878 6.1688C88.3263 6.1688 88.1834 6.2063 88.0591 6.2813C87.9473 6.3688 87.854 6.47505 87.7795 6.60005C87.7049 6.72505 87.6552 6.87505 87.6304 7.05005C87.5931 7.21255 87.5744 7.37505 87.5744 7.53755Z" fill="white"/>
</g>
<defs>
<linearGradient id="paint0_linear_2456_3" x1="48.0933" y1="14.8125" x2="48.0933" y2="0" gradientUnits="userSpaceOnUse">
<stop stop-color="#2E5E3E"/>
<stop offset="1" stop-color="#487858"/>
</linearGradient>
<clipPath id="clip0_2456_3">
<rect width="96" height="15" fill="white"/>
</clipPath>
</defs>
</svg>
