<svg width="40" height="40" viewBox="0 0 60 60" fill="none" xmlns="http://www.w3.org/2000/svg">
<path d="M9.68072 29.5473L7.23724 31.9898L12.7377 37.4903L15.1803 35.0468C16.2226 35.639 17.3252 36.0979 18.4745 36.4159V39.8657H26.2532V36.4159C27.4025 36.0979 28.5042 35.639 29.5475 35.0468L31.99 37.4903L37.4905 31.9898L35.047 29.5473C35.6392 28.5049 36.0981 27.4023 36.4161 26.253H39.8659V18.4743H36.4161C36.0981 17.325 35.6392 16.2233 35.047 15.18L37.4905 12.7375L31.99 7.23699L29.5475 9.68047C28.5042 9.08832 27.4025 8.62938 26.2532 8.31142V4.86157H18.4745V8.31142C17.3252 8.62938 16.2236 9.08832 15.1803 9.68047L12.7377 7.23699L7.23724 12.7375L9.68072 15.18C9.08857 16.2233 8.62962 17.325 8.31167 18.4743H4.86182V26.253H8.31167C8.62962 27.4023 9.08857 28.5039 9.68072 29.5473ZM6.80649 20.419H9.85477L10.022 19.6547C10.3409 18.2001 10.9136 16.8213 11.7255 15.5563L12.1485 14.8971L9.98798 12.7375L12.7387 9.98676L14.8983 12.1473L15.5575 11.7243C16.8225 10.9124 18.2013 10.3397 19.6559 10.0208L20.4192 9.85452V6.80625H24.3086V9.85452L25.0728 10.0218C26.5274 10.3407 27.9062 10.9134 29.1712 11.7253L29.8305 12.1483L31.99 9.98773L34.7408 12.7385L32.5802 14.898L33.0032 15.5573C33.8151 16.8223 34.3878 18.2011 34.7067 19.6557L34.873 20.419H37.9213V24.3083H34.873L34.7058 25.0726C34.3868 26.5272 33.8141 27.906 33.0022 29.171L32.5793 29.8302L34.7398 31.9898L31.989 34.7405L29.8295 32.58L29.1702 33.003C27.9052 33.8149 26.5265 34.3876 25.0718 34.7065L24.3086 34.8728V37.921H20.4192V34.8728L19.655 34.7055C18.2003 34.3866 16.8216 33.8139 15.5566 33.002L14.8973 32.579L12.7377 34.7395L9.987 31.9888L12.1475 29.8292L11.7246 29.17C10.9127 27.905 10.34 26.5262 10.021 25.0716L9.85477 24.3083H6.80649V20.419Z" fill="white"/>
<path d="M22.3637 33.0594C28.2609 33.0594 33.0594 28.2609 33.0594 22.3637C33.0594 16.4665 28.2609 11.668 22.3637 11.668C16.4665 11.668 11.668 16.4665 11.668 22.3637C11.668 28.2609 16.4665 33.0594 22.3637 33.0594ZM27.2254 29.6348C25.8339 30.5683 24.1615 31.1147 22.3637 31.1147C20.5658 31.1147 18.8934 30.5683 17.502 29.6348V28.1977C17.502 26.5895 18.8108 25.2807 20.419 25.2807H24.3083C25.9166 25.2807 27.2254 26.5895 27.2254 28.1977V29.6348ZM25.2807 18.4743C25.2807 20.0826 23.9719 21.3913 22.3637 21.3913C20.7554 21.3913 19.4467 20.0826 19.4467 18.4743C19.4467 16.8661 20.7554 15.5573 22.3637 15.5573C23.9719 15.5573 25.2807 16.8661 25.2807 18.4743ZM22.1138 13.619C19.5488 13.7495 17.502 15.8773 17.502 18.4743C17.502 21.1551 19.6829 23.336 22.3637 23.336C25.0444 23.336 27.2254 21.1551 27.2254 18.4743C27.2254 15.8773 25.1786 13.7495 22.6136 13.619C27.3238 13.7521 31.1147 17.6217 31.1147 22.3637C31.1147 24.46 30.3728 26.3853 29.1389 27.8934C28.9785 25.3565 26.885 23.336 24.3083 23.336H22.3637H20.419C17.8423 23.336 15.7489 25.3565 15.5884 27.8934C14.3545 26.3853 13.6126 24.46 13.6126 22.3637C13.6126 17.6217 17.4035 13.7521 22.1138 13.619Z" fill="white"/>
<path d="M11.0983 50.5615L5.26423 44.7275L9.72337 40.2684L13.2102 43.7552H31.5173L43.7552 31.5173V13.2102L40.2684 9.72337L44.7275 5.26423L50.5615 11.0983V38.3237L58.6251 46.3873L60 45.0124L52.5062 37.5186V10.2932L42.213 0H40.4356L35.0041 5.43147V7.20891L41.8105 14.0153V30.7122L30.7122 41.8105H14.0153L7.20891 35.0041H5.43147L0 40.4356V42.213L10.2932 52.5062H37.5186L45.0124 60L46.3873 58.6251L38.3237 50.5615H11.0983ZM36.9488 6.40381V6.23657L41.2407 1.94467H41.4079L43.3526 3.88935L38.8935 8.34849L36.9488 6.40381ZM1.94467 41.4079V41.2407L6.23657 36.9488H6.40381L8.34849 38.8935L3.88935 43.3526L1.94467 41.4079Z" fill="white"/>
<path d="M46.6238 40.8381C43.4335 40.8381 40.8384 43.4333 40.8384 46.6235C40.8384 48.1686 41.4403 49.6213 42.5332 50.7142L51.819 60L53.1939 58.6251L43.908 49.3393C43.1827 48.6139 42.7831 47.6494 42.7831 46.6235C42.7831 44.5058 44.506 42.7828 46.6238 42.7828C47.6496 42.7828 48.6142 43.1824 49.3395 43.9078L58.6253 53.1936L60.0002 51.8187L50.7144 42.5329C49.6215 41.44 48.1688 40.8381 46.6238 40.8381Z" fill="white"/>
</svg>
