<svg width="40" height="40" viewBox="0 0 40 50" fill="none" xmlns="http://www.w3.org/2000/svg">
<path d="M19.6483 23.3746C13.3084 23.3746 8.20117 18.2674 8.20117 11.9274C8.20117 5.58742 13.3084 0.480225 19.6483 0.480225C25.9883 0.480225 31.0955 5.58742 31.0955 11.9274C31.0955 18.2674 25.9883 23.3746 19.6483 23.3746ZM19.6483 4.00243C15.2456 4.00243 11.7234 7.52463 11.7234 11.9274C11.7234 16.3301 15.2456 19.8524 19.6483 19.8524C24.0511 19.8524 27.5733 16.3301 27.5733 11.9274C27.5733 7.52463 24.0511 4.00243 19.6483 4.00243Z" fill="white"/>
<path d="M4.15222 37.2874V45.5206H0.630371V37.2874C0.630371 30.3309 9.17154 24.96 20.0025 24.96C30.8335 24.96 39.3746 30.3309 39.3746 37.2874V45.5206H35.8528V37.2874C35.8528 32.5325 28.6318 28.4818 20.0025 28.4818C11.3732 28.4818 4.15222 32.5325 4.15222 37.2874Z" fill="white"/>
</svg>
