<svg width="16" height="21" viewBox="0 0 16 21" fill="none" xmlns="http://www.w3.org/2000/svg">
<g clip-path="url(#clip0_312_186)">
<path d="M4.17041 19.4137C4.17064 19.0832 4.273 18.7663 4.45499 18.5328L9.41698 12.157C9.56717 11.964 9.68631 11.735 9.76759 11.4829C9.84888 11.2308 9.89071 10.9606 9.89071 10.6877C9.89071 10.4148 9.84888 10.1446 9.76759 9.89248C9.68631 9.64037 9.56717 9.41131 9.41698 9.21838L4.46145 2.84672C4.28473 2.61161 4.18695 2.29672 4.18916 1.96987C4.19137 1.64303 4.2934 1.33037 4.47327 1.09924C4.65315 0.868119 4.89647 0.737018 5.15084 0.734178C5.40521 0.731338 5.65027 0.856986 5.83325 1.08406L10.7888 7.45074C11.4551 8.3086 11.8293 9.4711 11.8293 10.6831C11.8293 11.8951 11.4551 13.0576 10.7888 13.9155L5.82678 20.2913C5.69129 20.4655 5.51869 20.5842 5.33074 20.6325C5.14279 20.6808 4.94793 20.6565 4.77073 20.5626C4.59354 20.4687 4.44196 20.3095 4.33511 20.105C4.22827 19.9005 4.17096 19.66 4.17041 19.4137V19.4137Z" fill="white"/>
</g>
<defs>
<clipPath id="clip0_312_186">
<rect width="15.5224" height="19.9452" fill="white" transform="translate(0.23877 0.715088)"/>
</clipPath>
</defs>
</svg>
