<svg width="21" height="20" viewBox="0 0 21 20" fill="none" xmlns="http://www.w3.org/2000/svg">
<path d="M9.65054 3.33325H3.81721C3.37518 3.33325 2.95126 3.50885 2.6387 3.82141C2.32614 4.13397 2.15054 4.55789 2.15054 4.99992V16.6666C2.15054 17.1086 2.32614 17.5325 2.6387 17.8451C2.95126 18.1577 3.37518 18.3333 3.81721 18.3333H15.4839C15.9259 18.3333 16.3498 18.1577 16.6624 17.8451C16.9749 17.5325 17.1505 17.1086 17.1505 16.6666V10.8333" stroke="black" stroke-width="2" stroke-linecap="round" stroke-linejoin="round"/>
<path d="M15.9005 2.08344C16.2321 1.75192 16.6817 1.56567 17.1505 1.56567C17.6194 1.56567 18.069 1.75192 18.4005 2.08344C18.7321 2.41496 18.9183 2.8646 18.9183 3.33344C18.9183 3.80228 18.7321 4.25192 18.4005 4.58344L10.4839 12.5001L7.15054 13.3334L7.98388 10.0001L15.9005 2.08344Z" stroke="black" stroke-width="2" stroke-linecap="round" stroke-linejoin="round"/>
</svg>
