<svg width="24" height="22" viewBox="0 0 24 22" fill="none" xmlns="http://www.w3.org/2000/svg">
<path d="M6 8.25004V1.83337H18V8.25004" stroke="#C9942B" stroke-width="2" stroke-linecap="round" stroke-linejoin="round"/>
<path d="M6 16.5H4C3.46957 16.5 2.96086 16.3068 2.58579 15.963C2.21071 15.6192 2 15.1529 2 14.6667V10.0833C2 9.5971 2.21071 9.13079 2.58579 8.78697C2.96086 8.44315 3.46957 8.25 4 8.25H20C20.5304 8.25 21.0391 8.44315 21.4142 8.78697C21.7893 9.13079 22 9.5971 22 10.0833V14.6667C22 15.1529 21.7893 15.6192 21.4142 15.963C21.0391 16.3068 20.5304 16.5 20 16.5H18" stroke="#C9942B" stroke-width="2" stroke-linecap="round" stroke-linejoin="round"/>
<path d="M18 12.8334H6V20.1667H18V12.8334Z" stroke="#C9942B" stroke-width="2" stroke-linecap="round" stroke-linejoin="round"/>
</svg>
